<?xml version="1.0" encoding="UTF-8"?>
<svg width="16px" height="16px" viewBox="0 0 16 16" version="1.1" xmlns="http://www.w3.org/2000/svg" xmlns:xlink="http://www.w3.org/1999/xlink">
    <!-- Generator: Sketch 52.6 (67491) - http://www.bohemiancoding.com/sketch -->
    <title>icons8-facebook</title>
    <desc>Created with Sketch.</desc>
    <g id="Page-1" stroke="none" stroke-width="1" fill="none" fill-rule="evenodd">
        <g id="02-Veladora.-MainPage.-Tagos-y-Tragos.-Hover.-Desktop" transform="translate(-1360.000000, -848.000000)" fill="#FFFFFF">
            <g id="Group-4" transform="translate(1280.000000, 848.000000)">
                <g id="icons8-facebook" transform="translate(80.000000, 0.000000)">
                    <path d="M14.5454545,0 L1.45454545,0 C0.650909091,0 0,0.650909091 0,1.45454545 L0,14.5454545 C0,15.3490909 0.650909091,16 1.45454545,16 L8.72727273,16 L8.72727273,9.45454545 L6.54545455,9.45454545 L6.54545455,7.27272727 L8.72727273,7.27272727 L8.72727273,6.10109091 C8.72727273,3.88290909 9.808,2.90909091 11.6516364,2.90909091 C12.5345455,2.90909091 13.0014545,2.97454545 13.2225455,3.00436364 L13.2225455,5.09090909 L11.9650909,5.09090909 C11.1825455,5.09090909 10.9090909,5.504 10.9090909,6.34036364 L10.9090909,7.27272727 L13.2029091,7.27272727 L12.8916364,9.45454545 L10.9090909,9.45454545 L10.9090909,16 L14.5454545,16 C15.3490909,16 16,15.3490909 16,14.5454545 L16,1.45454545 C16,0.650909091 15.3483636,0 14.5454545,0 Z" id="Path"></path>
                </g>
            </g>
        </g>
    </g>
</svg>