<?xml version="1.0" encoding="UTF-8"?>
<svg width="128px" height="184px" viewBox="0 0 128 184" version="1.1" xmlns="http://www.w3.org/2000/svg" xmlns:xlink="http://www.w3.org/1999/xlink">
    <!-- Generator: Sketch 52.6 (67491) - http://www.bohemiancoding.com/sketch -->
    <title>Group 2я</title>
    <desc>Created with Sketch.</desc>
    <g id="Page-1" stroke="none" stroke-width="1" fill="none" fill-rule="evenodd">
        <g id="02-Veladora.-MainPage.-Tagos-y-Tragos.-Hover.-Desktop" transform="translate(-656.000000, -96.000000)" fill="#FFFFFF">
            <g id="Group-2" transform="translate(656.000000, 96.000000)">
                <g id="Group" transform="translate(14.000000, 0.000000)">
                    <polygon id="Fill-2" points="76.6829 39.1955 77.8419 41.5705 80.2999 42.7295 81.8969 42.7295 84.0409 41.4555 85.2579 39.6015 85.2579 36.8775 82.8209 33.3645 80.6629 29.4845 78.5829 33.6855 77.2069 36.5685"></polygon>
                    <polygon id="Fill-3" points="43.1662 122.8712 42.2552 106.2252 40.4742 89.6602 39.5632 73.0222 37.7812 56.4472 38.7042 56.6002 39.3552 56.1092 40.0782 56.4892 40.9642 56.1882 41.8752 72.8342 43.6562 89.4002 44.5672 106.0372 46.3492 122.6132 45.4262 122.4592 44.7752 122.9502 44.0512 122.5712"></polygon>
                    <polygon id="Fill-4" points="90.511 122.8712 89.625 122.5712 88.903 122.9512 88.251 122.4592 87.328 122.6132 89.11 106.0382 90.021 89.4012 91.802 72.8352 92.713 56.1882 93.599 56.4892 94.321 56.1092 94.973 56.6002 95.896 56.4472 94.114 73.0222 93.204 89.6582 91.422 106.2262"></polygon>
                    <path d="M46.3623,122.733 L50.8843,125.082 L56.2143,125.616 L61.4883,126.546 L66.8383,126.26 L72.1883,126.546 L77.4623,125.616 L82.7933,125.082 L87.3153,122.733 L82.7933,120.384 L77.4623,119.85 L72.1883,118.92 L66.8383,119.206 L61.4893,118.92 L56.2143,119.85 L49.0753,120.566 L46.3623,122.733 Z M66.8383,129.454 L60.4443,128.793 L54.0213,128.526 L47.9023,126.608 L43.1663,122.871 L44.5003,120.752 L46.2463,119.068 L48.6523,118.604 L50.8633,117.554 L54.8833,117.251 L58.8133,116.354 L62.8403,116.531 L66.8383,116.012 L73.2323,116.673 L79.6563,116.94 L85.7753,118.858 L90.5173,122.733 L89.1773,124.714 L87.4313,126.398 L85.0253,126.862 L82.8143,127.912 L78.7933,128.216 L74.8643,129.113 L70.8363,128.935 L66.8383,129.454 Z" id="Fill-5"></path>
                    <path d="M66.8386,51.5508 L60.0556,51.3068 L53.3556,52.3838 L46.6206,53.2248 L40.9706,56.3268 L46.6206,59.4288 L53.3546,60.2698 L60.0546,61.3468 L66.8386,61.1038 L73.6216,61.3468 L80.3216,60.2698 L87.0566,59.4288 L92.7066,56.3268 L87.0566,53.2248 L80.3226,52.3838 L73.6226,51.3068 L66.8386,51.5508 Z M66.8386,64.2968 L59.0156,63.5768 L51.1696,63.1598 L43.6406,60.9668 L37.7766,56.3268 L43.6416,51.6878 L51.1686,49.4948 L59.0146,49.0768 L66.8386,48.3568 L74.6616,49.0768 L82.5076,49.4948 L90.0366,51.6878 L95.9006,56.3268 L90.0366,60.9668 L82.5086,63.1598 L74.6626,63.5768 L66.8386,64.2968 Z" id="Fill-6"></path>
                    <polygon id="Fill-7" points="84.4613 119.3495 83.5753 119.0485 82.8533 119.4275 82.2023 118.9365 81.2783 119.0905 82.9083 104.4405 83.6663 89.7285 85.2953 75.0875 86.0543 60.3655 86.9403 60.6665 87.6623 60.2875 88.3133 60.7785 89.2363 60.6245 87.6073 75.2745 86.8493 89.9865 85.2203 104.6285"></polygon>
                    <polygon id="Fill-8" points="48.7573 119.4506 48.1323 104.7046 46.6363 90.0306 46.0123 75.2936 44.5153 60.6096 45.4373 60.7726 46.0923 60.2876 46.8113 60.6736 47.7003 60.3796 48.3253 75.1266 49.8213 89.7996 50.4453 104.5366 51.9423 119.2206 51.0203 119.0576 50.3653 119.5436 49.6443 119.1576"></polygon>
                    <polygon id="Fill-9" points="68.4351 117.6198 67.5281 117.3908 66.8391 117.8278 66.1501 117.3908 65.2421 117.6198 65.6791 103.8818 65.2421 90.1548 65.6791 76.4278 65.2421 62.6888 66.1491 62.9188 66.8381 62.4818 67.5271 62.9188 68.4351 62.6888 67.9981 76.4268 68.4351 90.1538 67.9981 103.8828"></polygon>
                    <polygon id="Fill-10" points="57.1357 118.0478 56.9537 104.2018 55.8987 90.4048 55.7177 76.5688 54.6627 62.7608 55.5797 62.9498 56.2487 62.4818 56.9567 62.8878 57.8527 62.6178 58.0357 76.4648 59.0897 90.2608 59.2707 104.0968 60.3257 117.9048 59.4087 117.7168 58.7407 118.1838 58.0307 117.7778"></polygon>
                    <polygon id="Fill-11" points="76.6614 118.0477 75.7654 117.7777 75.0574 118.1837 74.3884 117.7167 73.4714 117.9047 74.5314 103.9717 74.7184 90.0097 75.7784 76.0867 75.9664 62.1137 76.8624 62.3837 77.5704 61.9777 78.2394 62.4447 79.1564 62.2567 78.0964 76.1897 77.9094 90.1517 76.8494 104.0767"></polygon>
                    <polygon id="Fill-12" points="68.2522 125.5155 66.8392 125.3405 65.4252 125.5155 65.5332 124.6745 65.4182 122.7535 65.5242 120.7695 65.4342 119.9555 66.8392 120.0855 68.2602 119.9555 68.2302 120.7815 68.2592 122.7535 68.2322 124.6775"></polygon>
                    <polygon id="Fill-13" points="70.6609 124.0298 68.7119 123.6068 66.8389 124.0428 64.9649 123.6068 63.0159 124.0298 63.0159 121.1498 64.9649 121.5728 66.8379 121.1358 68.7119 121.5728 70.6609 121.1498"></polygon>
                    <polygon id="Fill-14" points="9.6642 109.1265 10.8942 108.9635 12.0392 108.4755 13.2732 108.3105 14.4152 107.8235 16.6742 107.2565 18.8292 106.3705 21.0892 105.8045 23.2422 104.9185 24.4512 104.6325 25.5412 104.0325 26.7522 103.7455 27.8382 103.1465 30.1192 102.2355 32.2562 101.0205 34.5392 100.1095 36.6332 98.9965 34.2882 99.3445 31.9102 99.9665 29.4692 100.2585 27.0922 100.8805 25.8632 101.0435 24.7182 101.5315 23.4842 101.6955 22.2502 102.1535 23.0532 101.1095 23.5762 99.9795 24.3822 99.0315 24.9032 97.9055 26.2022 95.8215 27.2052 93.5775 28.5052 91.4915 29.5342 89.3545 27.8502 91.0235 26.3022 92.9335 24.5072 94.6135 22.9602 96.5215 22.3552 97.0155 22.0112 97.7215 21.4022 98.2195 20.9082 98.8835 21.3682 96.7465 21.4952 94.5865 21.9542 92.4705 22.0812 90.3145 22.3192 88.1595 22.2222 85.9895 22.4602 83.8295 22.4332 81.7445 21.6672 83.6925 21.1272 85.8055 20.2682 87.8105 19.7292 89.9175 19.1272 92.0425 18.8532 94.2385 18.2502 96.3685 17.9012 98.6325 17.2172 96.4465 16.3032 94.4305 15.7052 92.2995 14.7922 90.2865 13.7752 87.6815 12.4512 85.2145 11.4332 82.6065 10.2122 80.1835 10.6682 82.8575 11.3972 85.5605 11.7982 88.3325 12.5262 91.0325 12.9872 93.1935 13.7712 95.2635 14.2322 97.4285 14.9812 99.5935 13.3552 97.9795 11.6052 96.6245 10.0812 95.0195 8.3342 93.6665 6.4482 92.0635 4.3582 90.7285 2.4682 89.1225 0.4892 87.7785 1.9092 89.7015 3.5872 91.5265 5.0022 93.5605 6.6782 95.3825 8.0602 97.0425 9.6852 98.4715 11.0702 100.1345 12.7092 101.5815 11.9182 101.3405 11.1332 101.3005 10.4372 100.9375 9.6572 100.8995 7.2792 100.2825 4.8372 99.9965 2.4582 99.3795 0.1112 99.0365 2.2072 100.1445 4.4922 101.0505 6.6322 102.2605 8.9142 103.1665 10.0022 103.7625 11.2142 104.0475 12.3062 104.6455 13.5722 105.0085 12.3072 105.3735 11.2172 105.9745 10.0052 106.2615 8.9192 106.8605 6.6382 107.7715 4.5012 108.9855 2.2182 109.8975 0.1242 111.0105 2.4692 110.6625 4.8472 110.0405 7.2892 109.7475"></polygon>
                    <polygon id="Fill-15" points="8.0526 31.9515 19.3066 28.3435 28.9666 23.4455 48.9086 18.5515 14.4736 32.8585 9.4896 35.5615"></polygon>
                    <path d="M15.0863,41.1796 L8.3873,31.9376 L4.3903,24.0876 L30.4763,13.9976 L54.7903,10.1416 L73.7493,11.2756 L88.1473,10.7596 L78.1593,15.8666 L62.2713,18.5516 L39.5233,27.0566 L15.0863,41.1796 Z M22.0723,45.4176 C22.0723,40.9166 25.7213,37.2686 30.2213,37.2686 C32.0463,37.2686 33.7243,37.8756 35.0833,38.8886 C35.0693,38.6966 35.0533,38.5056 35.0533,38.3106 C35.0533,33.8106 38.7023,30.1626 43.2023,30.1626 C45.4973,30.1626 47.5663,31.1136 49.0473,32.6406 C48.9573,32.1866 48.9083,31.7186 48.9083,31.2386 C48.9083,27.2886 52.1103,24.0876 56.0593,24.0876 C58.2023,24.0876 60.1193,25.0346 61.4303,26.5276 C62.6153,23.4906 65.5613,21.3356 69.0173,21.3356 C70.9173,21.3356 72.6613,21.9916 74.0463,23.0816 C74.0963,22.9006 74.1553,22.7246 74.2163,22.5496 C74.5423,21.3216 75.2483,20.2436 76.2033,19.4246 C77.6703,17.9826 79.6763,17.0886 81.8973,17.0886 C84.2163,17.0886 86.3033,18.0616 87.7873,19.6156 C87.7673,19.3816 87.7523,19.1466 87.7523,18.9076 C87.7523,14.4076 91.4003,10.7596 95.9003,10.7596 C95.9333,10.7596 95.9643,10.7636 95.9963,10.7636 C93.4923,9.6486 89.8203,7.2176 90.2413,2.6096 C89.7033,4.9676 88.6873,6.6956 87.6403,7.9306 C86.6663,9.0796 85.1153,9.5596 83.6403,9.2556 C82.9103,9.1046 82.2323,8.7756 81.6813,8.2746 C80.5433,7.2396 79.1443,5.2296 79.1223,1.8226 C78.4723,5.5186 75.7193,8.2956 72.4193,8.2956 C69.5203,8.2956 67.0473,6.1486 66.0473,3.1206 C65.2423,4.8876 64.1723,6.0986 63.3723,6.8186 C62.8283,7.3076 62.1413,7.6006 61.4153,7.6896 C60.8753,7.7556 60.3343,7.7046 59.8183,7.5306 C57.9233,6.8886 54.3673,5.0316 53.6833,0.0316 C53.6933,3.7406 52.2813,6.2556 51.1153,7.6996 C50.3953,8.5916 49.3543,9.1566 48.2163,9.2956 C47.5493,9.3766 46.8683,9.3186 46.2373,9.0856 C44.2973,8.3706 41.0063,6.4676 40.3513,1.6746 C40.3603,5.3706 38.9573,7.8826 37.7923,9.3296 C37.0723,10.2246 36.0193,10.7796 34.8783,10.9176 C33.9923,11.0256 33.0943,10.8776 32.3013,10.4676 C30.4993,9.5366 28.5103,7.7666 27.7253,4.4016 C28.0603,7.8776 27.0373,10.4216 26.0583,11.9996 C25.4493,12.9806 24.4983,13.6936 23.4053,14.0676 C22.3343,14.4336 21.1683,14.4566 20.1013,14.0776 C18.1383,13.3826 15.7733,11.8216 14.6023,8.3216 C15.3163,12.0426 14.3383,14.8166 13.4433,16.4386 C12.9793,17.2816 12.1993,17.9006 11.2883,18.2116 C10.6063,18.4456 9.8793,18.4946 9.1743,18.3416 C7.0913,17.8876 3.9093,16.4946 2.4883,12.2446 C3.6763,18.4396 0.1703,22.0146 0.1703,22.0146 L5.9973,32.8726 L13.9973,43.7736 C14.8553,43.6966 19.9993,43.4746 22.6993,48.5516 C22.2963,47.5866 22.0723,46.5286 22.0723,45.4176 Z" id="Fill-24"></path>
                </g>
                <path d="M2.55795385e-13,181.450671 L4.03382044,161.847255 L0.284494615,161.847255 L6.534241,157.882066 L7.84056719,160.600569 L3.86416769,180.827328 L7.78445128,177.88109 L14.488345,161.904514 L10.9660929,161.904514 L16.0791658,158.334933 L18.9201969,160.997479 L11.3641244,177.257747 L6.93227246,181.506629 L3.9202836,183.547133 L2.55795385e-13,181.450671 Z M22.2144619,169.665978 L30.0550291,164.057194 L24.6574615,161.393347 L22.2144619,169.665978 Z M14.9415789,179.241253 L20.2830305,161.790256 L29.6569976,157.938284 L33.8617758,161.337389 L32.4980287,164.793754 L21.4758199,172.272566 L19.0328203,180.486637 L29.7705345,171.818398 L28.635166,175.840846 L19.3734308,183.66061 L14.9415789,179.241253 Z M35.1105506,180.03416 L38.8037605,180.03416 L32.3830563,183.943392 L30.451625,181.733713 L40.621655,147.909231 L36.9284451,147.909231 L43.0085387,144 L45.2244647,146.209679 L35.1105506,180.03416 Z M53.348352,169.665978 L54.5411413,167.513558 L55.9048884,163.660285 L50.1667103,161.224172 L43.6324693,178.731126 L53.348352,169.665978 Z M49.655142,181.280455 L52.3826363,173.688426 L44.2575745,183.490134 L40.1102172,179.241253 L45.7348584,161.790256 L55.3933201,157.938284 L58.1769303,159.52462 L61.3598769,157.598634 L53.8599203,179.69412 L57.2686355,179.69412 L51.1885419,183.603351 L49.655142,181.280455 Z M71.1873388,169.665978 L72.1530545,167.966425 L73.6303385,163.660285 L68.0056972,161.224172 L61.4714562,178.731126 L71.1873388,169.665978 Z M67.4941289,181.280455 L70.1080863,173.745685 L62.0965614,183.490134 L57.9492041,179.241253 L63.5738453,161.790256 L73.232307,157.938284 L75.2211593,159.071753 L78.2305381,150.233038 L82.4353163,147.683709 L71.6989071,179.69412 L75.1076224,179.69412 L69.0275288,183.603351 L67.4941289,181.280455 Z M89.5375025,165.076795 L85.1056506,161.223522 L80.3331882,176.691273 L84.7650401,179.863945 L89.5375025,165.076795 Z M89.0833552,177.711525 L82.6052301,183.886393 L76.4129046,177.767483 L80.5602619,163.206767 L87.8905658,157.031899 L93.5152071,163.150809 L89.0833552,177.711525 Z M91.8087614,184 L98.626192,161.847255 L94.990403,161.847255 L101.638181,157.993981 L103.342538,159.977227 L102.149749,164.453843 L108.853643,157.427898 L111.865632,160.997479 L107.376359,163.717283 L105.899075,162.130948 L100.387971,168.986417 L96.6386447,181.450671 L91.8087614,184 Z M119.988475,169.665978 L121.181264,167.513558 L122.545012,163.660285 L116.806833,161.224172 L110.272592,178.731126 L119.988475,169.665978 Z M116.295265,181.280455 L119.022759,173.688426 L110.897698,183.490134 L106.75034,179.241253 L112.374982,161.790256 L122.033443,157.938284 L124.818358,159.52462 L128,157.598634 L120.500043,179.69412 L123.908759,179.69412 L117.828665,183.603351 L116.295265,181.280455 Z" id="Combined-Shape"></path>
            </g>
        </g>
    </g>
</svg>