<?xml version="1.0" encoding="UTF-8"?>
<svg width="78px" height="78px" viewBox="0 0 78 78" version="1.1" xmlns="http://www.w3.org/2000/svg" xmlns:xlink="http://www.w3.org/1999/xlink">
    <!-- Generator: Sketch 52.6 (67491) - http://www.bohemiancoding.com/sketch -->
    <title>Group 5</title>
    <desc>Created with Sketch.</desc>
    <g id="Page-1" stroke="none" stroke-width="1" fill="none" fill-rule="evenodd">
        <g id="04-Veladora.-Cantina.-Desktop" transform="translate(-920.000000, -3898.000000)">
            <g id="Group-9" transform="translate(0.000000, 3680.000000)">
                <g id="Group-5" transform="translate(920.000000, 218.000000)">
                    <rect id="Rectangle" fill="#FFFFFF" x="0" y="0" width="78" height="78" rx="39"></rect>
                    <g id="Group-Copy-2" transform="translate(22.000000, 18.000000)" fill="#1A1919">
                        <polygon id="Fill-2" points="27.1585271 13.2661692 27.5690063 14.0700154 28.4395479 14.4622923 29.0051521 14.4622923 29.7644854 14.0310923 30.1955063 13.4035846 30.1955063 12.4816154 29.3324021 11.2926 28.5681104 9.97936923 27.8314438 11.4012462 27.3441104 12.3770308"></polygon>
                        <polygon id="Fill-3" points="15.2880292 41.5871754 14.9653833 35.9531446 14.3346125 30.3465292 14.0119667 24.7152062 13.3808417 19.1052062 13.7077375 19.1569908 13.9383 18.9908062 14.1943625 19.1194215 14.5081542 19.0175446 14.8308 24.6515754 15.4615708 30.2585292 15.7842167 35.8895138 16.4153417 41.4998523 16.0884458 41.4477292 15.8578833 41.6139138 15.6014667 41.4856369"></polygon>
                        <polygon id="Fill-4" points="32.0559792 41.5871754 31.7421875 41.4856369 31.4864792 41.6142523 31.2555625 41.4477292 30.9286667 41.4998523 31.5597917 35.8898523 31.8824375 30.2588677 32.5132083 24.6519138 32.8358542 19.0175446 33.1496458 19.1194215 33.4053542 18.9908062 33.6362708 19.1569908 33.9631667 19.1052062 33.3320417 24.7152062 33.00975 30.3458523 32.378625 35.9534831"></polygon>
                        <path d="M16.4199813,41.5404 L18.0215229,42.3354462 L19.9092313,42.5161846 L21.7771063,42.8309538 L23.6718979,42.7341538 L25.5666896,42.8309538 L27.4345646,42.5161846 L29.3226271,42.3354462 L30.9241688,41.5404 L29.3226271,40.7453538 L27.4345646,40.5646154 L25.5666896,40.2498462 L23.6718979,40.3466462 L21.7774604,40.2498462 L19.9092313,40.5646154 L17.3808354,40.8069538 L16.4199813,41.5404 Z M23.6718979,43.8152 L21.4073563,43.5914769 L19.1325438,43.5011077 L16.9653979,42.8519385 L15.2880646,41.5871077 L15.7605229,40.8699077 L16.3788979,40.2999385 L17.2310229,40.1428923 L18.0140854,39.7875077 L19.4378354,39.6849538 L20.8297104,39.3813538 L22.2559396,39.4412615 L23.6718979,39.2656 L25.9364396,39.4893231 L28.2116063,39.5796923 L30.3787521,40.2288615 L32.0582104,41.5404 L31.5836271,42.2108923 L30.9652521,42.7808615 L30.1131271,42.9379077 L29.3300646,43.2932923 L27.9059604,43.3961846 L26.5144396,43.6997846 L25.0878563,43.6395385 L23.6718979,43.8152 Z" id="Fill-5"></path>
                        <path d="M23.6720042,17.4479631 L21.2696917,17.3653785 L18.896775,17.7299015 L16.5114625,18.0145477 L14.5104208,19.0644554 L16.5114625,20.1143631 L18.8964208,20.3990092 L21.2693375,20.7635323 L23.6720042,20.6812862 L26.0743167,20.7635323 L28.4472333,20.3990092 L30.8325458,20.1143631 L32.8335875,19.0644554 L30.8325458,18.0145477 L28.4475875,17.7299015 L26.0746708,17.3653785 L23.6720042,17.4479631 Z M23.6720042,21.7619938 L20.9013583,21.5183015 L18.1225667,21.3771631 L15.4560458,20.6349169 L13.3792125,19.0644554 L15.4564,17.4943323 L18.1222125,16.7520862 L20.9010042,16.6106092 L23.6720042,16.3669169 L26.44265,16.6106092 L29.2214417,16.7520862 L31.8879625,17.4943323 L33.9647958,19.0644554 L31.8879625,20.6349169 L29.2217958,21.3771631 L26.4430042,21.5183015 L23.6720042,21.7619938 Z" id="Fill-6"></path>
                        <polygon id="Fill-7" points="29.9133771 40.3952154 29.5995854 40.2933385 29.3438771 40.4216154 29.1133146 40.2554308 28.7860646 40.3075538 29.3633563 35.3490923 29.6318146 30.3696462 30.2087521 25.4142308 30.4775646 20.4314 30.7913562 20.5332769 31.0470646 20.405 31.2776271 20.5711846 31.6045229 20.5190615 31.0275854 25.4775231 30.7591271 30.4569692 30.1821896 35.4127231"></polygon>
                        <polygon id="Fill-8" points="17.2682104 40.4294338 17.0468563 35.43848 16.5170229 30.4718954 16.2960229 25.4839877 15.7658354 20.5140185 16.0923771 20.5691877 16.3243563 20.4050338 16.5790021 20.53568 16.8938563 20.4361723 17.1152104 25.4274646 17.6450438 30.3937108 17.8660438 35.3816185 18.3962313 40.3515877 18.0696896 40.2964185 17.8377104 40.4609108 17.5823563 40.3302646"></polygon>
                        <polygon id="Fill-9" points="24.2374313 39.8097785 23.9162021 39.7322708 23.6721813 39.8801785 23.4281604 39.7322708 23.1065771 39.8097785 23.2613479 35.1599938 23.1065771 30.5139323 23.2613479 25.8678708 23.1065771 21.2177477 23.4278063 21.2955938 23.6718271 21.1476862 23.9158479 21.2955938 24.2374313 21.2177477 24.0826604 25.8675323 24.2374313 30.5135938 24.0826604 35.1603323"></polygon>
                        <polygon id="Fill-10" points="20.2355604 39.95464 20.1711021 35.2683015 19.7974563 30.5985477 19.7333521 25.9155938 19.3597063 21.2421169 19.6844771 21.3060862 19.9214146 21.1476862 20.1721646 21.2851015 20.4894979 21.1937169 20.5543104 25.8803938 20.9276021 30.5498092 20.9917063 35.2327631 21.3653521 39.90624 21.0405813 39.8426092 20.8039979 40.0006708 20.5525396 39.8632554"></polygon>
                        <polygon id="Fill-11" points="27.1509125 39.9546062 26.8335792 39.8632215 26.5828292 40.0006369 26.3458917 39.8425754 26.0211208 39.9062062 26.3965375 35.1904215 26.4627667 30.4648215 26.8381833 25.7524215 26.9047667 21.0230985 27.2221 21.1144831 27.47285 20.9770677 27.7097875 21.1351292 28.0345583 21.0714985 27.6591417 25.7872831 27.5929125 30.5128831 27.2174958 35.22596"></polygon>
                        <polygon id="Fill-12" points="24.1726542 42.4821692 23.6722167 42.4229385 23.171425 42.4821692 23.209675 42.1975231 23.1689458 41.5473385 23.2064875 40.8758308 23.1746125 40.6003231 23.6722167 40.6443231 24.1754875 40.6003231 24.1648625 40.8798923 24.1751333 41.5473385 24.1655708 42.1985385"></polygon>
                        <polygon id="Fill-13" points="25.0257354 41.9793169 24.3354646 41.8361477 23.6721104 41.9837169 23.0084021 41.8361477 22.3181313 41.9793169 22.3181313 41.0045477 23.0084021 41.1477169 23.6717563 40.9998092 24.3354646 41.1477169 25.0257354 41.0045477"></polygon>
                        <polygon id="Fill-14" points="3.4227375 36.9351231 3.8583625 36.8799538 4.26388333 36.7147846 4.700925 36.6589385 5.10538333 36.4941077 5.90544583 36.3022 6.668675 36.0023231 7.46909167 35.8107538 8.2316125 35.5108769 8.6598 35.4140769 9.04584167 35.211 9.4747375 35.1138615 9.8593625 34.9111231 10.6672167 34.6027846 11.4240708 34.1915538 12.2326333 33.8832154 12.9742583 33.5065077 12.1437375 33.6242923 11.3015292 33.8348154 10.4370083 33.9336462 9.59515417 34.1441692 9.15988333 34.1993385 8.7543625 34.3645077 8.31732083 34.4200154 7.88027917 34.5750308 8.164675 34.2216769 8.34990417 33.8392154 8.6353625 33.5183538 8.81988333 33.1372462 9.27994583 32.4318923 9.635175 31.6723846 10.0955917 30.9663538 10.4600292 30.2430615 9.8636125 30.8079538 9.3153625 31.4544154 8.67963333 32.0230308 8.1317375 32.6688154 7.91746667 32.8360154 7.79563333 33.0749692 7.57994583 33.2435231 7.4049875 33.4682615 7.56790417 32.7449692 7.61288333 32.0138923 7.77544583 31.2977077 7.820425 30.5679846 7.90471667 29.8386 7.8703625 29.1041385 7.95465417 28.3730615 7.94509167 27.6673692 7.6738 28.3266923 7.48255 29.0418615 7.17832083 29.7204769 6.987425 30.4336154 6.77421667 31.1528462 6.677175 31.8961077 6.4636125 32.6170308 6.34000833 33.3833077 6.09775833 32.6434308 5.77405 31.9610923 5.56225833 31.2398308 5.23890417 30.5585077 4.87871667 29.6768154 4.4098 28.8418308 4.04925833 27.9591231 3.61682083 27.1390308 3.77832083 28.0440769 4.03650833 28.9589385 4.17852917 29.8971538 4.4363625 30.811 4.59963333 31.5424154 4.8773 32.2430308 5.04057083 32.9758 5.30584167 33.7085692 4.72996667 33.1622923 4.110175 32.7036769 3.570425 32.1604462 2.95169583 31.7025077 2.2837375 31.1599538 1.54352917 30.7081077 0.874154167 30.1645385 0.173258333 29.7096462 0.676175 30.3605077 1.27046667 30.9782 1.7716125 31.6666308 2.36519583 32.2833077 2.85465417 32.8451538 3.430175 33.3288154 3.92069583 33.8916769 4.501175 34.3814308 4.22102917 34.2998615 3.94300833 34.2863231 3.69650833 34.1634615 3.42025833 34.1506 2.57805 33.9417692 1.713175 33.8449692 0.8706125 33.6361385 0.0393833333 33.5200462 0.781716667 33.8950615 1.5909875 34.2017077 2.34890417 34.6112462 3.1571125 34.9178923 3.54244583 35.1196154 3.97169583 35.2160769 4.35844583 35.4184769 4.80682083 35.5413385 4.3588 35.6648769 3.97275833 35.8682923 3.54350833 35.9654308 3.15888333 36.1681692 2.35102917 36.4765077 1.594175 36.8874 0.7856125 37.1960769 0.0439875 37.5727846 0.874508333 37.455 1.71671667 37.2444769 2.58159167 37.1453077"></polygon>
                        <polygon id="Fill-15" points="2.8519625 10.8143538 6.83775417 9.59318462 10.2590042 7.9354 17.3217958 6.27896923 5.12606667 11.1213385 3.3609 12.0362"></polygon>
                        <path d="M5.34306458,13.9377108 L2.97050208,10.8096492 L1.55489792,8.15272615 L10.7936896,4.73764923 L19.4048979,3.43254154 L26.1195437,3.81635692 L31.2188354,3.64171077 L27.6814188,5.37023385 L22.0544187,6.27900308 L13.9978354,9.15761846 L5.34306458,13.9377108 Z M7.81727292,15.3721108 C7.81727292,13.8486954 9.10962708,12.6139877 10.7033771,12.6139877 C11.3497313,12.6139877 11.9440229,12.8194338 12.4253354,13.1622954 C12.4203771,13.0973108 12.4147104,13.0326646 12.4147104,12.9666646 C12.4147104,11.4435877 13.7070646,10.20888 15.3008146,10.20888 C16.1136271,10.20888 16.8463979,10.5307569 17.3709188,11.0475877 C17.3390438,10.8939262 17.3216896,10.7355262 17.3216896,10.5730646 C17.3216896,9.23614154 18.4557313,8.15272615 19.8543354,8.15272615 C20.6133146,8.15272615 21.2922521,8.47324923 21.7565646,8.97857231 C22.1762521,7.95066462 23.2196271,7.22128 24.4436271,7.22128 C25.1165437,7.22128 25.7342104,7.44331077 26.2247313,7.81223385 C26.2424396,7.75097231 26.2633354,7.69140308 26.2849396,7.63217231 C26.4003979,7.21654154 26.6504396,6.85168 26.9886688,6.57448 C27.5082312,6.08641846 28.2186896,5.78383385 29.0052938,5.78383385 C29.8266063,5.78383385 30.5657521,6.11315692 31.0913354,6.63912615 C31.0842521,6.55992615 31.0789396,6.48038769 31.0789396,6.39949538 C31.0789396,4.87641846 32.3709396,3.64171077 33.9646896,3.64171077 C33.9763771,3.64171077 33.9873563,3.64306462 33.9986896,3.64306462 C33.1118562,3.26568 31.8113563,2.44288 31.9604604,0.883249231 C31.7699188,1.68134154 31.4100854,2.26620308 31.0392729,2.68420308 C30.6943146,3.07309538 30.1450021,3.23555692 29.6226063,3.13266462 C29.3640646,3.08155692 29.1239396,2.97020308 28.9287938,2.80063385 C28.5257521,2.45032615 28.0302729,1.77001846 28.0224812,0.61688 C27.7922729,1.86783385 26.8172521,2.80774154 25.6485021,2.80774154 C24.6217729,2.80774154 23.7459187,2.08106462 23.3917521,1.05620308 C23.1066479,1.65426462 22.7276896,2.06414154 22.4443562,2.30783385 C22.2516896,2.47334154 22.0083771,2.57251077 21.7512521,2.60263385 C21.5600021,2.62497231 21.3683979,2.60771077 21.1856479,2.54881846 C20.5145021,2.33152615 19.2550854,1.70300308 19.0128354,0.0106953846 C19.0163771,1.26604923 18.5162938,2.11728 18.1033354,2.60601846 C17.8483354,2.90792615 17.4796479,3.09915692 17.0766063,3.14620308 C16.8403771,3.17361846 16.5991896,3.15398769 16.3757104,3.07512615 C15.6886271,2.83312615 14.5230646,2.18903385 14.2910854,0.566787692 C14.2942729,1.81774154 13.7973771,2.66795692 13.3847729,3.15771077 C13.1297729,3.46063385 12.7568354,3.64848 12.3527313,3.69518769 C12.0389396,3.73174154 11.7208979,3.68164923 11.4400438,3.54288 C10.8018354,3.22777231 10.0973979,2.62869538 9.81937708,1.48977231 C9.93802292,2.66626462 9.57571042,3.52731077 9.22898125,4.06140308 C9.01329375,4.39343385 8.67648125,4.63475692 8.28937708,4.76134154 C7.91006458,4.88521846 7.49710625,4.89300308 7.11921042,4.76472615 C6.42398125,4.52949538 5.58637708,4.00115692 5.17164792,2.81654154 C5.42452292,4.07595692 5.07814792,5.01484923 4.76116875,5.56383385 C4.59683542,5.84915692 4.32058542,6.05866462 3.99793958,6.16392615 C3.75639792,6.24312615 3.49891875,6.25971077 3.24923125,6.20792615 C2.51150208,6.05426462 1.38454375,5.58278769 0.881272917,4.14432615 C1.30202292,6.24109538 0.0603145833,7.45109538 0.0603145833,7.45109538 L2.12404375,11.1261108 L4.95737708,14.81568 C5.26125208,14.7896185 7.08308542,14.71448 8.03933542,16.4328492 C7.89660625,16.1062338 7.81727292,15.7481415 7.81727292,15.3721108 Z" id="Fill-24"></path>
                    </g>
                </g>
            </g>
        </g>
    </g>
</svg>