<?xml version="1.0" encoding="UTF-8"?>
<svg width="18px" height="18px" viewBox="0 0 18 18" version="1.1" xmlns="http://www.w3.org/2000/svg" xmlns:xlink="http://www.w3.org/1999/xlink">
    <!-- Generator: Sketch 52.6 (67491) - http://www.bohemiancoding.com/sketch -->
    <title>Group 20</title>
    <desc>Created with Sketch.</desc>
    <g id="Page-1" stroke="none" stroke-width="1" fill="none" fill-rule="evenodd">
        <g id="04-Veladora.-Cantina.-Desktop" transform="translate(-863.000000, -667.000000)">
            <g id="Group-13" transform="translate(768.000000, 56.000000)">
                <g id="Group-18" transform="translate(96.000000, 169.000000)">
                    <g id="Group-7" transform="translate(0.000000, 432.000000)">
                        <g id="Group-3" transform="translate(0.000000, 11.000000)">
                            <g id="Group-20">
                                <path d="M8,0 C3.58894215,0 0,3.58894215 0,8 C0,12.4110578 3.58894215,16 8,16 C12.4110578,16 16,12.4110578 16,8 C16,3.58894215 12.4110578,0 8,0 Z" id="Shape" stroke="#000000" opacity="0.1" fill-rule="nonzero"></path>
                                <polygon id="Path" fill="#000000" opacity="0.5" transform="translate(7.942308, 8.046154) rotate(-270.000000) translate(-7.942308, -8.046154) " points="8.25323349 5.10384615 7.57215793 5.74971857 9.46732471 7.58686679 4.59615385 7.58686679 4.59615385 8.5054409 9.46732471 8.5054409 7.57215793 10.3425891 8.25323349 10.9884615 11.2884615 8.04615385"></polygon>
                            </g>
                        </g>
                    </g>
                </g>
            </g>
        </g>
    </g>
</svg>