<?xml version="1.0" encoding="UTF-8"?>
<svg width="16px" height="15px" viewBox="0 0 16 15" version="1.1" xmlns="http://www.w3.org/2000/svg" xmlns:xlink="http://www.w3.org/1999/xlink">
    <!-- Generator: Sketch 52.6 (67491) - http://www.bohemiancoding.com/sketch -->
    <title>icons8-telegram_app</title>
    <desc>Created with Sketch.</desc>
    <g id="Page-1" stroke="none" stroke-width="1" fill="none" fill-rule="evenodd">
        <g id="02-Veladora.-MainPage.-Tagos-y-Tragos.-Hover.-Desktop" transform="translate(-1280.000000, -849.000000)" fill="#FFFFFF" fill-rule="nonzero">
            <g id="Group-4" transform="translate(1280.000000, 848.000000)">
                <g id="icons8-telegram_app" transform="translate(0.000000, 1.000000)">
                    <path d="M14.1787501,0.641983696 C13.9707142,0.651336522 13.7768858,0.713085587 13.6062502,0.783372978 C13.446409,0.848892848 12.8356902,1.11581126 11.8737498,1.5361753 C10.9109722,1.95690535 9.63614656,2.51463848 8.27625024,3.11056383 C5.55645696,4.30241472 2.49869491,5.64402326 0.932499968,6.33067239 C0.873606208,6.35648283 0.668109312,6.42338022 0.45,6.59689174 C0.231890688,6.77040391 0,7.12994674 0,7.53057065 C0,7.85361848 0.151083264,8.17455587 0.341249984,8.36616848 C0.531416704,8.55778109 0.73263808,8.652435 0.905,8.72409978 C1.53038618,8.98413 3.46998227,9.79295348 3.83624998,9.94565217 C3.96514944,10.3480324 4.6671936,12.53643 4.83,13.0727752 C4.93732352,13.4267126 5.03948672,13.648382 5.17249984,13.8243039 C5.23900672,13.9122646 5.31631552,13.9893522 5.41,14.0497624 C5.4474464,14.0739059 5.48850496,14.0925039 5.53,14.10963 L5.53249984,14.1109037 C5.54206144,14.1148167 5.550304,14.1214585 5.56,14.124915 C5.57829248,14.1314361 5.59052928,14.1322193 5.61500032,14.1376526 C5.71248768,14.169735 5.81091136,14.1898774 5.89875008,14.1898774 C6.2732544,14.1898787 6.50249984,13.9797046 6.50249984,13.9797046 L6.51625024,13.9695143 L8.44249984,12.2715691 L10.7787501,14.5236072 C10.8116435,14.5710059 11.1184269,15 11.7950003,15 C12.196727,15 12.5154042,14.7945822 12.72,14.575832 C12.9245958,14.3570817 13.0520627,14.1272654 13.1062502,13.8383152 L13.1062502,13.8370415 C13.1569318,13.5639972 15.31,2.30044154 15.31,2.30044161 L15.3062502,2.31572687 C15.3692774,2.02256628 15.3857939,1.74954815 15.3162502,1.48012904 C15.2467027,1.21071013 15.0634547,0.952754674 14.8362502,0.81394363 C14.6090682,0.675163435 14.3867859,0.632630804 14.1787501,0.641983696 Z M14.0587501,2.0049253 C14.0556781,2.023959 14.0610502,2.01438776 14.0562502,2.03676972 L14.0550003,2.04441235 L14.0537498,2.05205504 C14.0537498,2.05205504 11.927351,13.1715463 11.8487501,13.5950237 C11.8545011,13.5630424 11.8282067,13.6266307 11.8012499,13.6650815 C11.7631366,13.638313 11.6849997,13.6039402 11.6849997,13.6039402 L11.6724998,13.5899289 L8.48124992,10.513757 L6.22499968,12.5008493 L6.89625024,9.76222826 C6.89625024,9.76222826 11.0921997,5.33615804 11.3449997,5.07854935 C11.5485203,4.87246239 11.5912499,4.80062152 11.5912499,4.72953457 C11.5912499,4.63431717 11.5425498,4.56521739 11.4337498,4.56521739 C11.3358298,4.56521739 11.2041498,4.66222826 11.1337498,4.70788043 C10.2165651,5.30367065 6.18996672,7.69509196 4.385,8.76486065 C4.09816122,8.64523957 2.1053847,7.81400348 1.43,7.53311804 C1.4351136,7.53083543 1.43343034,7.53164478 1.43875002,7.52929696 C3.00535507,6.84246783 6.0618432,5.50086978 8.78124992,4.3091882 C10.1409536,3.7133473 11.4167482,3.15519046 12.3787501,2.73479961 C13.3259398,2.32088146 13.98408,2.03601483 14.0587501,2.0049253 Z" id="Shape"></path>
                </g>
            </g>
        </g>
    </g>
</svg>