<?xml version="1.0" encoding="UTF-8"?>
<svg width="48px" height="48px" viewBox="0 0 48 48" version="1.1" xmlns="http://www.w3.org/2000/svg" xmlns:xlink="http://www.w3.org/1999/xlink">
    <!-- Generator: Sketch 52.6 (67491) - http://www.bohemiancoding.com/sketch -->
    <title>Group 14 Copy 2</title>
    <desc>Created with Sketch.</desc>
    <g id="Page-1" stroke="none" stroke-width="1" fill="none" fill-rule="evenodd">
        <g id="04-Veladora.-Cantina.-Desktop" transform="translate(-704.000000, -3445.000000)">
            <g id="Group-14-Copy-2" transform="translate(704.000000, 3445.000000)">
                <rect id="Rectangle" fill="#000000" opacity="0.5" x="0" y="0" width="48" height="48" rx="24"></rect>
                <g id="icons8-play" transform="translate(18.000000, 16.000000)" fill="#FFFFFF">
                    <path d="M16.2320157,7.26469325 L2.01595905,0.150754411 C1.58605453,-0.0683953638 1.07267345,-0.0473235398 0.659465313,0.205541585 C0.246256102,0.45419256 0,0.900920407 0,1.38136468 L0,15.6218859 C0,16.0981149 0.246256102,16.5448428 0.659465313,16.7934938 C0.884851475,16.9325693 1.13528114,17 1.38988436,17 C1.6069234,17 1.81978888,16.949427 2.01595905,16.8524962 L16.2361903,9.73012794 C16.703659,9.49833464 17,9.02210559 17,8.49951767 C17,7.97692974 16.6994844,7.5007007 16.2320157,7.26469325 Z" id="Path"></path>
                </g>
            </g>
        </g>
    </g>
</svg>