<?xml version="1.0" encoding="UTF-8"?>
<svg width="161px" height="161px" viewBox="0 0 161 161" version="1.1" xmlns="http://www.w3.org/2000/svg" xmlns:xlink="http://www.w3.org/1999/xlink">
    <!-- Generator: Sketch 52.6 (67491) - http://www.bohemiancoding.com/sketch -->
    <title>Combined Shape</title>
    <desc>Created with Sketch.</desc>
    <g id="Page-1" stroke="none" stroke-width="1" fill="none" fill-rule="evenodd">
        <g id="04-Veladora.-Cantina.-Desktop" transform="translate(-96.000000, -3424.000000)" fill="#90AC89">
            <g id="Group-53" transform="translate(96.000000, 3424.000000)">
                <path d="M148.495553,83.608093 L153.69709,90.9475052 L161,85.937622 L160.060179,91.2124745 L155.748277,94.1050564 L158.796874,98.3102179 L157.935474,103.145908 L152.881027,96.0174971 L145.350207,101.038421 L146.232438,96.0861929 L150.818812,92.9286416 L147.59867,88.4118958 L148.453814,83.6103741 L148.230568,83.6225751 L147.488024,70.0085488 L160.230131,69.3130043 L160.962873,82.7552912 L158.068666,82.9135368 L157.550355,73.4138954 L155.667038,73.516939 L156.17187,82.7920925 L153.260508,82.9515648 L152.755676,73.6764113 L150.666505,73.7904953 L151.193393,83.4606494 L148.495553,83.608093 Z M43.0765079,23.3373445 L43.3487741,9.26113911 L48.0184704,7.01135318 L59.7092528,15.5627478 L55.8286629,17.4322537 L53.7333649,15.8485712 L46.7600663,19.2085296 L46.7355599,21.8128347 L43.2160363,23.5085997 L43.377079,23.7062614 L32.8221687,32.3263518 L24.7534336,22.4243496 L35.1760093,13.9134364 L37.0090887,16.1619956 L29.6436875,22.1765542 L30.8371496,23.6412458 L38.0285553,17.7677588 L39.8726626,20.0298119 L32.6800315,25.9032988 L34.0033776,27.5274627 L41.5011134,21.4037269 L43.0765079,23.3373445 Z M11.1542146,114.202981 L13.427184,119.204277 L10.6800156,120.456748 L4.456613,106.765438 L7.20378145,105.512968 L9.48532812,110.530211 L18.3529722,106.490655 L20.0218587,110.163425 L11.1542146,114.202981 Z M6.87882646,88.6181058 C5.44397622,88.879395 3.73710483,90.0447694 4.50905672,94.3051328 C5.29448712,98.6317386 7.28930881,99.0549535 8.72538438,98.7936643 L8.92756225,98.756863 C10.3624125,98.4968005 12.18814,97.3081186 11.4149628,93.0489819 C10.6479122,88.824193 8.56731804,88.3114283 7.11531331,88.5763976 L6.87882646,88.6181058 Z M1.40286938,94.4854592 C-0.0319808637,86.5756338 3.76651252,84.9232556 6.01252491,84.5159879 L6.51980757,84.4239847 C8.73151098,84.0216238 12.9649931,84.1945899 14.4035193,92.1215892 L14.5358539,92.8478015 C15.9792814,100.809149 12.0729598,102.444353 9.86125643,102.84794 L9.35519909,102.939944 C7.10918671,103.348438 2.97863148,103.173019 1.53520399,95.2128981 L1.40286938,94.4854592 Z M13.5875784,74.792472 C12.9981993,81.6178858 8.56131397,82.3551384 6.16948846,82.1478245 L3.80140364e-13,81.6142057 L0.345540366,77.6102246 L6.27609133,78.124216 C7.91679541,78.2652877 10.0133187,77.705908 10.3135222,74.2330923 C10.6088244,70.8117984 8.63973448,69.8819523 7.00025572,69.7408807 L1.06970475,69.2281159 L1.4140198,65.2413088 L7.58350825,65.7749276 C9.97533377,65.9810149 14.2039146,67.6579273 13.6402672,74.1754369 L13.5875784,74.792472 Z M8.81544543,59.0069238 L10.8347735,53.2916824 C11.2182988,52.2072709 10.855604,51.5865557 10.1927056,51.3522541 L10.1755511,51.3461206 C9.54573642,51.1228594 8.86323293,51.3547075 8.47358103,52.4550663 L6.45425293,58.1703077 L8.81544543,59.0069238 Z M15.7532098,61.4640237 L14.4200612,65.2373833 L2.38741436,60.9745665 L5.82076226,51.2614776 C7.23968333,47.2452294 9.0592842,46.523924 10.7894367,47.1360522 L10.9842626,47.2059747 C12.7144151,47.8181029 12.851651,49.4876551 12.8308205,50.3733396 C13.6211522,49.2693007 14.8501486,48.519781 16.4026296,49.069347 L18.1658658,49.6937423 C19.1363196,50.0372211 19.4830853,50.033541 19.7171215,49.9881527 L19.7979926,50.0175938 L18.4427882,53.8547423 C18.2565395,53.9173045 18.0568122,53.9185312 17.6193728,53.7639657 L16.2286341,53.2708284 C14.7570243,52.7494767 13.8809202,53.1677847 13.2229231,55.0299304 L11.4841934,59.9527171 L15.7532098,61.4640237 Z M27.0540952,39.7510134 C22.9566237,45.0430398 20.2057793,43.8874791 18.8775319,42.8558161 L18.7280428,42.7405054 L21.2816106,39.4431092 C21.9236785,39.8761378 23.1857586,40.2907657 25.2038614,37.6852339 L25.3508998,37.4950939 C27.4106635,34.8355868 27.1129106,34.1265485 26.5700937,33.705787 C25.9868411,33.2531311 25.3803075,33.2813454 23.5055672,35.5630258 L22.1197298,37.2681526 C19.0895123,40.9568692 16.9219205,41.1212483 15.3498343,39.9018987 L15.2273023,39.8062153 C13.7238341,38.6383875 12.844054,36.5235396 16.4060605,31.9221509 L17.1314502,30.9861712 C20.8294674,26.2093629 23.3376983,26.4179036 24.8558704,27.5955451 L24.9918809,27.7010421 L22.449341,30.9849445 C22.0168029,30.7580032 21.0316452,30.3200677 18.9829094,32.966081 L18.8150405,33.1832086 C16.9231458,35.6268147 17.2208986,36.1395795 17.6546621,36.475698 C18.0884255,36.8118165 18.6912832,36.8461643 20.3295366,34.8159595 L21.6700372,33.1402738 C24.6806495,29.3926751 26.789426,28.5744596 28.7952756,30.1311544 L28.9852003,30.2783596 C30.6528614,31.5725385 31.7090876,33.7401349 27.7794849,38.8150337 L27.0540952,39.7510134 Z M46.85074,10.6424144 L46.7931499,15.9896428 L51.1540654,13.8882888 L46.85074,10.6424144 Z M66.103465,14.7262543 C59.5553525,16.0989427 58.2099507,13.4333021 57.8644103,11.7858307 L57.8264254,11.6005975 L61.9055171,10.7455807 C62.1150469,11.4914204 62.807353,12.6273537 66.0311711,11.9514366 L66.2664326,11.9023682 C69.5576433,11.2117305 69.7892289,10.4793847 69.6495424,9.80714768 C69.4976026,9.08461556 69.0160517,8.71169575 66.1108169,9.23182075 L63.9518023,9.63295488 C59.2563743,10.4769313 57.4980395,9.19501945 57.0912331,7.24577744 L57.0593748,7.09489212 C56.6684975,5.22906638 57.3693808,3.04674949 63.0609943,1.85316077 L64.2189221,1.61149893 C70.129868,0.372521939 71.9053573,2.15738483 72.2986852,4.0403845 L72.3329942,4.20844376 L68.2710569,5.06100713 C68.0884841,4.60712447 67.621637,3.63434353 64.3475808,4.32130107 L64.0792356,4.37650301 C61.0575954,5.01071202 60.9509925,5.59462593 61.063722,6.13192486 C61.1764515,6.6704505 61.6138909,7.08630515 64.1772612,6.60298146 L66.2823618,6.19571377 C71.0010708,5.29530872 73.1380297,6.03992162 73.6575656,8.52768927 L73.7065784,8.76321757 C74.1391165,10.8314504 73.5411601,13.1671061 67.2613928,14.4833658 L66.103465,14.7262543 Z M89.5089235,6.73522078 C89.5824428,5.27788944 88.8374479,3.34950149 84.5218693,3.13237384 C80.1376727,2.91279277 79.2725965,4.76021786 79.1990773,6.21754921 L79.1880494,6.42240976 C79.1157555,7.87974111 79.8533984,9.92834662 84.1702023,10.1454743 C88.451472,10.3613752 89.4231511,8.45016121 89.4966703,6.97565592 L89.5089235,6.73522078 Z M85.0524331,0.0655991253 C93.0684794,0.469186678 93.808573,4.54431692 93.6933929,6.82599731 L93.6676611,7.33998876 C93.5549316,9.58609456 92.4227356,13.6710385 84.39076,13.2674509 L83.6543424,13.2306496 C75.5880579,12.8246087 74.8871746,8.6476615 74.9999041,6.40155569 L75.0256358,5.88756425 C75.1395906,3.60711057 76.249731,-0.377243144 84.3172408,0.0287978287 L85.0524331,0.0655991253 Z M102.357511,3.08023867 L107.538166,13.2889184 L110.084382,5.66736983 L113.825285,6.91984062 L109.778052,19.0360542 L106.035923,17.7835834 L100.503601,7.0044836 L97.8213749,15.0332998 L94.0804716,13.7796023 L98.127705,1.66461546 L102.357511,3.08023867 Z M130.452516,25.5354085 C131.356803,24.3908882 131.867761,22.3888976 128.480976,19.7048564 C125.03905,16.9778803 123.263561,17.9801023 122.359275,19.1233959 L122.231841,19.2853216 C121.327555,20.4286152 120.741852,22.5250624 124.128637,25.2091037 C127.490917,27.8722908 129.388938,26.8811093 130.303027,25.7243218 L130.452516,25.5354085 Z M130.691454,17.516406 C136.982249,22.501755 135.221463,26.2505804 133.807444,28.0403501 L133.487635,28.4439376 C132.094446,30.2067198 128.80446,32.8748138 122.498961,27.8796511 L121.921835,27.4220883 C115.589379,22.4060716 117.440838,18.5971374 118.835253,16.8343553 L119.153836,16.4307677 C120.569081,14.640998 123.781872,12.0428265 130.113102,17.0588432 L130.691454,17.516406 Z M148.155578,36.7357605 L145.861779,38.509583 L140.22898,31.2131125 L138.73654,32.3674466 L144.232102,39.4884974 L141.924824,41.2733603 L136.428036,34.1535361 L132.424914,37.2509786 L129.990203,34.0983342 L140.089294,26.2854189 L148.155578,36.7357605 Z M153.526526,45.6832597 L155.309367,51.0783298 L149.152132,57.7663521 L158.082267,59.475159 L159.800166,64.6764089 L147.682972,68.6877502 L146.445399,64.9364714 L154.831492,62.1616536 L144.867186,60.1608898 L144.194485,58.1233247 L151.003591,50.5692452 L142.616272,53.3452897 L141.410557,49.694601 L153.526526,45.6832597 Z M143.379402,104.98585 L144.721128,101.218624 L156.739071,105.507202 L155.39857,109.275655 L143.379402,104.98585 Z M139.097274,113.418254 C142.764659,106.989068 146.925847,108.041585 148.892486,109.166478 L149.325024,109.413046 C151.335775,110.5637 154.314529,113.412121 150.571175,119.977472 L150.223184,120.588374 C146.5558,127.018787 142.916598,126.263133 141.620209,125.522201 L141.456016,125.428971 L143.557441,121.743934 C143.906657,121.824897 145.711554,122.262833 147.719854,118.742175 C149.615425,115.415338 148.560424,113.802214 147.174587,113.010987 L146.99569,112.907943 C145.683372,112.15965 143.453289,112.051699 141.607956,115.28776 C139.55677,118.883247 141.066364,120.221587 141.268542,120.454662 L139.168343,124.139699 L139.00415,124.046469 C137.603609,123.246654 135.133363,120.371246 138.748058,114.030382 L139.097274,113.418254 Z M136.479745,133.978893 L134.672397,128.949383 L131.319921,132.438146 L136.479745,133.978893 Z M128.221085,131.502166 L133.583087,125.923089 L132.699631,123.474577 L135.517868,120.54274 L140.241479,134.052496 L136.650064,137.787827 L122.723072,133.854996 L125.706728,130.748966 L128.221085,131.502166 Z M125.444141,147.018574 L114.307204,144.390961 L118.480645,151.25931 L115.109789,153.312822 L108.474678,142.393878 L111.845535,140.341592 L123.645371,143.066115 L119.247696,135.832207 L122.619778,133.778694 L129.254888,144.696412 L125.444141,147.018574 Z M94.6333362,146.184902 C101.870079,144.676049 103.837943,148.492343 104.298664,150.710235 L104.400365,151.198465 C104.872114,153.467879 104.712822,157.58717 97.3253652,159.127918 L96.6367351,159.270216 C89.3999925,160.77907 87.5558853,157.551596 87.2520058,156.088131 L87.2127955,155.904124 L91.3605053,155.039294 C91.5308248,155.354558 92.3983517,156.997123 96.361038,156.171547 C100.104392,155.39136 100.611675,153.531668 100.285739,151.968839 L100.244079,151.766432 C99.9365231,150.288247 98.5396578,148.543865 94.8967801,149.304425 C90.850772,150.147175 90.8495466,152.163886 90.8078857,152.470563 L86.6614013,153.335394 L86.6221911,153.151387 C86.2938052,151.571385 86.8096651,147.815199 93.9447061,146.3272 L94.6333362,146.184902 Z M84.1703249,161 L80.1806815,160.769379 L80.4478013,156.122601 L71.8852621,155.627011 L71.6169169,160.272561 L67.6260482,160.04194 L68.3636911,147.285383 L72.3533345,147.517232 L72.0641588,152.540609 L80.6266981,153.036199 L80.9170991,148.012822 L84.9079678,148.244671 L84.1703249,161 Z M50.4763407,155.121606 L51.3291637,152.346788 L60.4136895,155.147367 L60.9687597,153.34165 L52.0974396,150.607314 L52.9563892,147.816549 L61.826484,150.550885 L62.4428202,148.548895 L53.1953267,145.696794 L54.0677549,142.858187 L67.08801,146.870756 L63.3311775,159.083879 L50.4763407,155.121606 Z M35.3417951,147.021027 L36.7668428,144.492778 L44.7890158,149.026698 L45.7165834,147.38168 L37.8892364,142.956938 L39.3228613,140.415195 L47.1502083,144.838711 L49.6376088,140.426235 L53.1040404,142.385291 L46.8291743,153.512776 L35.3417951,147.021027 Z M35.8389077,130.596977 C40.7904276,135.101456 39.42297,137.756056 38.2932245,139.002393 L38.1657912,139.142238 L35.0804343,136.335526 C35.5619852,135.729531 36.0741692,134.501594 33.6370068,132.283703 L33.4593353,132.121777 C30.9707095,129.857271 30.2416438,130.100159 29.779698,130.608017 C29.2834433,131.153903 29.2650635,131.762351 31.3909944,133.81341 L32.980235,135.329624 C36.4184842,138.64174 36.4123576,140.817924 35.0743077,142.292429 L34.9713808,142.406513 C33.6896956,143.817229 31.5135265,144.528721 27.2102011,140.61429 L26.3340969,139.818155 C21.8653533,135.752838 22.2684837,133.265071 23.5611968,131.842087 L23.6763769,131.71451 L26.7482553,134.508955 C26.4897126,134.922356 25.9763034,135.871829 28.4514507,138.124069 L28.6548539,138.308075 C30.9388512,140.387348 31.4730909,140.129739 31.8431377,139.723698 C32.2119591,139.316431 32.2928303,138.717796 30.3984849,136.924346 L28.8337507,135.454748 C25.3366861,132.157352 24.6860409,129.988529 26.3941376,128.107982 L26.5558799,127.928883 C27.974801,126.366054 30.2146868,125.48037 34.9628035,129.800842 L35.8389077,130.596977 Z M21.7453944,122.120289 C21.7453944,122.798659 21.1964508,123.346999 20.5200739,123.346999 C19.8436971,123.346999 19.2947535,122.798659 19.2947535,122.120289 C19.2947535,121.441918 19.8436971,120.893579 20.5200739,120.893579 C21.1964508,120.893579 21.7453944,121.441918 21.7453944,122.120289 Z" id="Combined-Shape"></path>
            </g>
        </g>
    </g>
</svg>