<?xml version="1.0" encoding="UTF-8"?>
<svg width="16px" height="16px" viewBox="0 0 16 16" version="1.1" xmlns="http://www.w3.org/2000/svg" xmlns:xlink="http://www.w3.org/1999/xlink">
    <!-- Generator: Sketch 52.6 (67491) - http://www.bohemiancoding.com/sketch -->
    <title>Shape</title>
    <desc>Created with Sketch.</desc>
    <g id="Page-1" stroke="none" stroke-width="1" fill="none" fill-rule="evenodd">
        <g id="02-Veladora.-MainPage.-Tagos-y-Tragos.-Hover.-Desktop" transform="translate(-1320.000000, -848.000000)" fill="#FFFFFF" fill-rule="nonzero">
            <g id="Group-4" transform="translate(1280.000000, 848.000000)">
                <path d="M44.6653646,0 C42.0926979,0 40,2.0946354 40,4.66796867 L40,11.3346353 C40,13.907302 42.0946354,16 44.6679687,16 L51.3346353,16 C53.907302,16 56,13.9053647 56,11.3320313 L56,4.6653646 C56,2.09269793 53.9053647,0 51.3320313,0 L44.6653646,0 Z M53,2 C53.552,2 54,2.448 54,3 C54,3.552 53.552,4 53,4 C52.448,4 52,3.552 52,3 C52,2.448 52.448,2 53,2 Z M48,4 C50.206,4 52,5.794 52,8 C52,10.206 50.206,12 48,12 C45.794,12 44,10.206 44,8 C44,5.794 45.794,4 48,4 Z M48,5 C46.3431458,5 45,6.34314575 45,8 C45,9.65685425 46.3431458,11 48,11 C49.6568542,11 51,9.65685425 51,8 C51,6.34314575 49.6568542,5 48,5 Z" id="Shape"></path>
            </g>
        </g>
    </g>
</svg>