<?xml version="1.0" encoding="UTF-8"?>
<svg width="80px" height="26px" viewBox="0 0 80 26" version="1.1" xmlns="http://www.w3.org/2000/svg" xmlns:xlink="http://www.w3.org/1999/xlink">
    <!-- Generator: Sketch 52.6 (67491) - http://www.bohemiancoding.com/sketch -->
    <title>Group 2</title>
    <desc>Created with Sketch.</desc>
    <g id="Page-1" stroke="none" stroke-width="1" fill="none" fill-rule="evenodd">
        <g id="02-TopBarExpanded" transform="translate(-140.000000, -15.000000)" fill="#1A1919">
            <g id="TopBar">
                <g id="Group-3" transform="translate(140.000000, 15.000000)">
                    <g id="Group-2">
                        <polygon id="Fill-16" points="0.110787879 23.7783 2.60856566 11.5388 0.286949495 11.5388 4.15684848 9.0631125 4.96573737 10.760425 2.50351515 23.3891125 4.9309899 21.5496125 9.08210101 11.57455 6.90109091 11.57455 10.0671515 9.3458625 11.8263434 11.0082375 7.14755556 21.160425 4.40331313 23.8132375 2.53826263 25.0872375"></polygon>
                        <path d="M13.8661818,16.4204625 L18.7211313,12.9185875 L15.3789091,11.2554 L13.8661818,16.4204625 Z M9.36274747,22.3988375 L12.6702222,11.5032125 L18.4746667,9.0982125 L21.078303,11.2204625 L20.2338586,13.3784625 L13.4088081,18.0479 L11.8960808,23.1764 L18.5449697,17.7643375 L17.8419394,20.275775 L12.1069899,25.1580875 L9.36274747,22.3988375 Z" id="Fill-17"></path>
                        <polygon id="Fill-18" points="21.8515556 22.8938938 24.1384242 22.8938938 20.1626667 25.3346438 18.9667071 23.9550188 25.2640808 2.83651875 22.9772121 2.83651875 26.7420606 0.39576875 28.1141818 1.77539375"></polygon>
                        <path d="M33.1445657,16.4204625 L33.8831515,15.0765875 L34.727596,12.670775 L31.1744646,11.149775 L27.128404,22.0803375 L33.1445657,16.4204625 Z M30.857697,23.672025 L32.5465859,18.9319 L27.5154747,25.05165 L24.9473939,22.3988375 L28.4302222,11.5032125 L34.4108283,9.0982125 L36.1344646,10.08865 L38.1053737,8.88615 L33.4613333,22.6815875 L35.5720404,22.6815875 L31.8071919,25.1223375 L30.857697,23.672025 Z" id="Fill-19"></path>
                        <path d="M44.1906263,16.4204625 L44.7886061,15.3593375 L45.7033535,12.670775 L42.2205253,11.149775 L38.1744646,22.0803375 L44.1906263,16.4204625 Z M41.9037576,23.672025 L43.5223434,18.96765 L38.5615354,25.05165 L35.9934545,22.3988375 L39.4762828,11.5032125 L45.4568889,9.0982125 L46.688404,9.8059 L48.5518384,4.2874 L51.1554747,2.6957125 L44.5073939,22.6815875 L46.618101,22.6815875 L42.8532525,25.1223375 L41.9037576,23.672025 Z" id="Fill-20"></path>
                        <path d="M55.5532121,13.5551813 L52.8089697,11.1493688 L49.8538182,20.8067438 L52.5980606,22.7876188 L55.5532121,13.5551813 Z M55.272,21.4437438 L51.2606869,25.2990563 L47.4263434,21.4786813 L49.9944242,12.3876188 L54.5334141,8.53230625 L58.0162424,12.3526813 L55.272,21.4437438 Z" id="Fill-21"></path>
                        <polygon id="Fill-22" points="56.959596 25.3699875 61.1810101 11.5388 58.929697 11.5388 63.0460606 9.1329875 64.1014141 10.3712375 63.3628283 13.1662375 67.5139394 8.77955 69.3789899 11.0082375 66.5991919 12.7063625 65.6844444 11.715925 62.2719192 15.996175 59.950303 23.7783"></polygon>
                        <path d="M74.4087273,16.4204625 L75.1473131,15.0765875 L75.9917576,12.670775 L72.4386263,11.149775 L68.3925657,22.0803375 L74.4087273,16.4204625 Z M72.1218586,23.672025 L73.8107475,18.9319 L68.7796364,25.05165 L66.2115556,22.3988375 L69.6943838,11.5032125 L75.6749899,9.0982125 L77.3994343,10.08865 L79.3695354,8.88615 L74.7254949,22.6815875 L76.836202,22.6815875 L73.0713535,25.1223375 L72.1218586,23.672025 Z" id="Fill-23"></path>
                    </g>
                </g>
            </g>
        </g>
    </g>
</svg>