<?xml version="1.0" encoding="UTF-8"?>
<svg width="21px" height="28px" viewBox="0 0 21 28" version="1.1" xmlns="http://www.w3.org/2000/svg" xmlns:xlink="http://www.w3.org/1999/xlink">
    <!-- Generator: Sketch 52.6 (67491) - http://www.bohemiancoding.com/sketch -->
    <title>Group Copy 2</title>
    <desc>Created with Sketch.</desc>
    <g id="Page-1" stroke="none" stroke-width="1" fill="none" fill-rule="evenodd">
        <g id="02-TopBarExpanded" transform="translate(-16.000000, -14.000000)" fill="#1A1919">
            <g id="TopBar">
                <g id="Group-Copy-2" transform="translate(16.000000, 14.000000)">
                    <polygon id="Fill-2" points="16.7743844 8.44210769 17.0279156 8.95364615 17.5656031 9.20327692 17.9149469 9.20327692 18.3839469 8.92887692 18.6501656 8.52955385 18.6501656 7.94284615 18.1170719 7.1862 17.6450094 6.35050769 17.1900094 7.25533846 16.8890094 7.87629231"></polygon>
                    <polygon id="Fill-3" points="9.44260625 26.4645662 9.243325 22.8792738 8.85373125 19.3114277 8.65445 15.7278585 8.2646375 12.1578585 8.46654375 12.1908123 8.60895 12.0850585 8.76710625 12.1669046 8.96091875 12.1020738 9.1602 15.6873662 9.54979375 19.2554277 9.749075 22.8387815 10.1388875 26.4089969 9.93698125 26.3758277 9.794575 26.4815815 9.6362 26.3999508"></polygon>
                    <polygon id="Fill-4" points="19.7992812 26.4645662 19.6054687 26.3999508 19.4475312 26.4817969 19.3049063 26.3758277 19.103 26.4089969 19.4928125 22.8389969 19.6920937 19.2556431 20.0816875 15.6875815 20.2809687 12.1020738 20.4747813 12.1669046 20.6327187 12.0850585 20.7753437 12.1908123 20.97725 12.1578585 20.5874375 15.7278585 20.388375 19.3109969 19.9985625 22.8794892"></polygon>
                    <path d="M10.1417531,26.4348 L11.1309406,26.9407385 L12.2968781,27.0557538 L13.4505656,27.2560615 L14.6208781,27.1944615 L15.7911906,27.2560615 L16.9448781,27.0557538 L18.1110344,26.9407385 L19.1002219,26.4348 L18.1110344,25.9288615 L16.9448781,25.8138462 L15.7911906,25.6135385 L14.6208781,25.6751385 L13.4507844,25.6135385 L12.2968781,25.8138462 L10.7352219,25.9680615 L10.1417531,26.4348 Z M14.6208781,27.8824 L13.2221906,27.7400308 L11.8171594,27.6825231 L10.4786281,27.2694154 L9.44262813,26.4645231 L9.73444063,26.0081231 L10.1163781,25.6454154 L10.6426906,25.5454769 L11.1263469,25.3193231 L12.0057219,25.2540615 L12.8654094,25.0608615 L13.7463156,25.0989846 L14.6208781,24.9872 L16.0195656,25.1295692 L17.4248156,25.1870769 L18.7633469,25.6001846 L19.8006594,26.4348 L19.5075344,26.8614769 L19.1255969,27.2241846 L18.5992844,27.3241231 L18.1156281,27.5502769 L17.2360344,27.6157538 L16.3765656,27.8089538 L15.4954406,27.7706154 L14.6208781,27.8824 Z" id="Fill-5"></path>
                    <path d="M14.6209438,11.1032492 L13.1371625,11.0506954 L11.6715375,11.2826646 L10.1982563,11.4638031 L8.96231875,12.1319262 L10.1982563,12.8000492 L11.6713188,12.9811877 L13.1369438,13.2131569 L14.6209438,13.1608185 L16.104725,13.2131569 L17.57035,12.9811877 L19.0436313,12.8000492 L20.2795688,12.1319262 L19.0436313,11.4638031 L17.5705688,11.2826646 L16.1049438,11.0506954 L14.6209438,11.1032492 Z M14.6209438,13.8485415 L12.9096625,13.6934646 L11.19335,13.6036492 L9.54638125,13.1313108 L8.26363125,12.1319262 L9.5466,11.1327569 L11.1931313,10.6604185 L12.9094438,10.5703877 L14.6209438,10.4153108 L16.332225,10.5703877 L18.0485375,10.6604185 L19.6955063,11.1327569 L20.9782563,12.1319262 L19.6955063,13.1313108 L18.0487563,13.6036492 L16.3324438,13.6934646 L14.6209438,13.8485415 Z" id="Fill-6"></path>
                    <polygon id="Fill-7" points="18.4759094 25.7060462 18.2820969 25.6412154 18.1241594 25.7228462 17.9817531 25.6170923 17.7796281 25.6502615 18.1361906 22.4948769 18.3020031 19.3261385 18.6583469 16.1726923 18.8243781 13.0018 19.0181906 13.0666308 19.1761281 12.985 19.3185344 13.0907538 19.5204406 13.0575846 19.1640969 16.2129692 18.9982844 19.3817077 18.6419406 22.5353692"></polygon>
                    <polygon id="Fill-8" points="10.6656594 25.7278215 10.5289406 22.55176 10.2016906 19.3912062 10.0651906 16.2170831 9.73772188 13.0543754 9.93940938 13.0894831 10.0826906 12.9850215 10.2399719 13.06816 10.4344406 13.0048369 10.5711594 16.1811138 10.8984094 19.3414523 11.0349094 22.5155754 11.3623781 25.6782831 11.1606906 25.6431754 11.0174094 25.7478523 10.8596906 25.6647138"></polygon>
                    <polygon id="Fill-9" points="14.9701781 25.3334954 14.7717719 25.2841723 14.6210531 25.3782954 14.4703344 25.2841723 14.2717094 25.3334954 14.3673031 22.3745415 14.2717094 19.4179569 14.3673031 16.4613723 14.2717094 13.5022031 14.4701156 13.5517415 14.6208344 13.4576185 14.7715531 13.5517415 14.9701781 13.5022031 14.8745844 16.4611569 14.9701781 19.4177415 14.8745844 22.3747569"></polygon>
                    <polygon id="Fill-10" points="12.4984344 25.42568 12.4586219 22.4434646 12.2278406 19.4718031 12.1882469 16.4917415 11.9574656 13.5177108 12.1580594 13.5584185 12.3044031 13.4576185 12.4592781 13.5450646 12.6552781 13.4869108 12.6953094 16.4693415 12.9258719 19.4407877 12.9654656 22.4208492 13.1962469 25.39488 12.9956531 25.3543877 12.8495281 25.4549723 12.6942156 25.3675262"></polygon>
                    <polygon id="Fill-11" points="16.7696813 25.4256585 16.5736813 25.3675046 16.4188063 25.4549508 16.2724625 25.3543662 16.0718688 25.3948585 16.3037438 22.3939046 16.34465 19.3867046 16.576525 16.3879046 16.61765 13.3783354 16.81365 13.4364892 16.968525 13.3490431 17.1148688 13.4496277 17.3154625 13.4091354 17.0835875 16.4100892 17.0426813 19.4172892 16.8108063 22.41652"></polygon>
                    <polygon id="Fill-12" points="14.9301688 27.0341077 14.621075 26.9964154 14.3117625 27.0341077 14.3353875 26.8529692 14.3102313 26.4392154 14.3334188 26.0118923 14.3137313 25.8365692 14.621075 25.8645692 14.9319188 25.8365692 14.9253563 26.0144769 14.9317 26.4392154 14.9257938 26.8536154"></polygon>
                    <polygon id="Fill-13" points="15.4570719 26.7141108 15.0307281 26.6230031 14.6210094 26.7169108 14.2110719 26.6230031 13.7847281 26.7141108 13.7847281 26.0938031 14.2110719 26.1849108 14.6207906 26.0907877 15.0307281 26.1849108 15.4570719 26.0938031"></polygon>
                    <polygon id="Fill-14" points="2.11404375 23.5041692 2.38310625 23.4690615 2.633575 23.3639538 2.9035125 23.3284154 3.153325 23.2235231 3.64748125 23.1014 4.1188875 22.9105692 4.6132625 22.7886615 5.08423125 22.5978308 5.3487 22.5362308 5.5871375 22.407 5.85204375 22.3451846 6.08960625 22.2161692 6.588575 22.0199538 7.05604375 21.7582615 7.55545 21.5620462 8.0135125 21.3223231 7.50054375 21.3972769 6.98035625 21.5312462 6.4463875 21.5941385 5.92641875 21.7281077 5.657575 21.7632154 5.40710625 21.8683231 5.13716875 21.9036462 4.86723125 22.0022923 5.0428875 21.7774308 5.15729375 21.5340462 5.33360625 21.3298615 5.447575 21.0873385 5.73173125 20.6384769 5.9511375 20.1551538 6.2355125 19.7058615 6.46060625 19.2455846 6.09223125 19.6050615 5.75360625 20.0164462 5.36095 20.3782923 5.02254375 20.7892462 4.8902 20.8956462 4.81495 21.0477077 4.68173125 21.1549692 4.57366875 21.2979846 4.67429375 20.8377077 4.702075 20.3724769 4.80248125 19.9167231 4.8302625 19.4523538 4.882325 18.9882 4.86110625 18.5208154 4.91316875 18.0555846 4.9072625 17.6065077 4.7397 18.0260769 4.621575 18.4811846 4.43366875 18.9130308 4.3157625 19.3668462 4.184075 19.8245385 4.1241375 20.2975231 3.99223125 20.7562923 3.9158875 21.2439231 3.7662625 20.7730923 3.566325 20.3388769 3.4355125 19.8798923 3.23579375 19.4463231 3.013325 18.8852462 2.7237 18.3538923 2.5010125 17.7921692 2.23391875 17.2702923 2.33366875 17.8462308 2.4931375 18.4284154 2.58085625 19.0254615 2.74010625 19.607 2.84095 20.0724462 3.01245 20.5182923 3.11329375 20.9846 3.2771375 21.4509077 2.92145 21.1032769 2.5386375 20.8114308 2.2052625 20.4657385 1.82310625 20.1743231 1.41054375 19.8290615 0.95335625 19.5415231 0.53991875 19.1956154 0.1070125 18.9061385 0.4176375 19.3203231 0.7847 19.7134 1.09423125 20.1514923 1.46085625 20.5439231 1.76316875 20.9014615 2.1186375 21.2092462 2.42160625 21.5674308 2.7801375 21.8790923 2.60710625 21.8271846 2.4353875 21.8185692 2.2831375 21.7403846 2.1125125 21.7322 1.592325 21.5993077 1.0581375 21.5377077 0.53773125 21.4048154 0.024325 21.3309385 0.482825 21.5695846 0.98266875 21.7647231 1.45079375 22.0253385 1.94998125 22.2204769 2.18798125 22.3488462 2.45310625 22.4102308 2.69198125 22.5390308 2.96891875 22.6172154 2.6922 22.6958308 2.4537625 22.8252769 2.1886375 22.8870923 1.951075 23.0161077 1.45210625 23.2123231 0.9846375 23.4738 0.48523125 23.6702308 0.02716875 23.9099538 0.5401375 23.835 1.060325 23.7010308 1.5945125 23.6379231"></polygon>
                    <polygon id="Fill-15" points="1.76150625 6.88186154 4.22331875 6.10475385 6.33644375 5.0498 10.6987563 3.99570769 3.1661 7.07721538 2.07585 7.6594"></polygon>
                    <path d="M3.30012813,8.86945231 L1.83472188,6.87886769 L0.960378125,5.18809846 L6.66669063,3.01486769 L11.9853781,2.18434462 L16.1326594,2.42859077 L19.2822219,2.31745231 L17.0973469,3.41742154 L13.6218469,3.99572923 L8.64572187,5.82757538 L3.30012813,8.86945231 Z M4.82831563,9.78225231 C4.82831563,8.81280615 5.62653438,8.02708308 6.61090938,8.02708308 C7.01012813,8.02708308 7.37719063,8.15782154 7.67447188,8.37600615 C7.67140937,8.33465231 7.66790938,8.29351385 7.66790938,8.25151385 C7.66790938,7.28228308 8.46612813,6.49656 9.45050313,6.49656 C9.95253437,6.49656 10.4051281,6.70139077 10.7290969,7.03028308 C10.7094094,6.93249846 10.6986906,6.83169846 10.6986906,6.72831385 C10.6986906,5.87754462 11.3991281,5.18809846 12.2629719,5.18809846 C12.7317531,5.18809846 13.1510969,5.39206769 13.4378781,5.71363692 C13.6970969,5.05951385 14.3415344,4.59536 15.0975344,4.59536 C15.5131594,4.59536 15.8946594,4.73665231 16.1976281,4.97142154 C16.2085656,4.93243692 16.2214719,4.89452923 16.2348156,4.85683692 C16.3061281,4.59234462 16.4605656,4.36016 16.6694719,4.18376 C16.9903781,3.87317538 17.4291906,3.68062154 17.9150344,3.68062154 C18.4223156,3.68062154 18.8788469,3.89019077 19.2034719,4.22489846 C19.1990969,4.17449846 19.1958156,4.12388308 19.1958156,4.07240615 C19.1958156,3.10317538 19.9938156,2.31745231 20.9781906,2.31745231 C20.9854094,2.31745231 20.9921906,2.31831385 20.9991906,2.31831385 C20.4514406,2.07816 19.6481906,1.55456 19.7402844,0.562067692 C19.6225969,1.06994462 19.4003469,1.44212923 19.1713156,1.70812923 C18.9582531,1.95560615 18.6189719,2.05899077 18.2963156,1.99351385 C18.1366281,1.96099077 17.9883156,1.89012923 17.8677844,1.78222154 C17.6188469,1.55929846 17.3128156,1.12637538 17.3080031,0.39256 C17.1658156,1.18862154 16.5635969,1.78674462 15.8417219,1.78674462 C15.2075656,1.78674462 14.6665969,1.32431385 14.4478469,0.672129231 C14.2717531,1.05271385 14.0376906,1.31354462 13.8626906,1.46862154 C13.7436906,1.57394462 13.5934094,1.63705231 13.4345969,1.65622154 C13.3164719,1.67043692 13.1981281,1.65945231 13.0852531,1.62197538 C12.6707219,1.48369846 11.8928469,1.08372923 11.7432219,0.00680615385 C11.7454094,0.805667692 11.4365344,1.34736 11.1814719,1.65837538 C11.0239719,1.85049846 10.7962531,1.97219077 10.5473156,2.00212923 C10.4014094,2.01957538 10.2524406,2.00708308 10.1144094,1.95689846 C9.69003437,1.80289846 8.97012813,1.39302154 8.82684688,0.360683077 C8.82881563,1.15674462 8.52190938,1.69779077 8.26706563,2.00945231 C8.10956563,2.20222154 7.87922188,2.32176 7.62962813,2.35148308 C7.43581562,2.37474462 7.23937813,2.34286769 7.06590938,2.25456 C6.67172188,2.05403692 6.23662813,1.67280615 6.06490937,0.948036923 C6.13819063,1.69671385 5.91440938,2.24465231 5.70025313,2.58452923 C5.56703437,2.79582154 5.35900313,2.94939077 5.11990938,3.02994462 C4.88562813,3.10877538 4.63056563,3.11372923 4.39715938,3.03209846 C3.96775313,2.88240615 3.45040938,2.54619077 3.19425313,1.79234462 C3.35044063,2.59379077 3.13650313,3.19126769 2.94072188,3.54062154 C2.83922188,3.72219077 2.66859688,3.85551385 2.46931563,3.92249846 C2.32012813,3.97289846 2.16109688,3.98345231 2.00687813,3.95049846 C1.55122188,3.85271385 0.855159375,3.55268308 0.544315625,2.63729846 C0.804190625,3.97160615 0.037253125,4.74160615 0.037253125,4.74160615 L1.31190938,7.08025231 L3.06190938,9.42816 C3.24959688,9.41157538 4.37484688,9.36376 4.96547188,10.4572677 C4.87731563,10.2494215 4.82831563,10.0215446 4.82831563,9.78225231 Z" id="Fill-24"></path>
                </g>
            </g>
        </g>
    </g>
</svg>